<svg xmlns="http://www.w3.org/2000/svg" width="1925.299" height="3088.746" viewBox="0 0 1925.299 3088.746" preserveAspectRatio="none">
  <path id="app-background" d="M-700.405,0s180,75.789,184.737,241.579S-248.826,503.684,19.595,472.105s345.789-45.789,284.211,74.211c-40.827,79.559-367.5,157.541-563.649,288.759-100.261,67.07-110.907,165.482-147.366,248.5-108.185,246.339,873.332,384.056,873.332,384.056l494.448,186.735.97,333.032S732.747,2001.054,731.268,2205c-.981,135.3,230.394,428.064,230.394,428.064l.349,455.677-1921.468-3.514-1.346-637.589s105.215-95.469,167.41-107.408c203.247-39.016,1016.587,41.356,1021.586-340.722s-747.069,60.511-1047.113-439.367c-69.91-116.472-144.367-419.793-144.367-419.793L-963.189,0Z" transform="translate(963.289)" fill="#fce782"/>
</svg>
