<svg xmlns="http://www.w3.org/2000/svg" xmlns:xlink="http://www.w3.org/1999/xlink" width="230" height="352" viewBox="0 0 230 352">
  <defs>
    <clipPath id="clip-path">
      <rect width="230" height="352" fill="none"/>
    </clipPath>
  </defs>
  <g id="Dots_Light" data-name="Dots Light" opacity="0.75" clip-path="url(#clip-path)">
    <g transform="translate(-125 -126)">
      <rect id="Rectangle_1" data-name="Rectangle 1" width="6" height="5" rx="2.5" transform="translate(125 128)" fill="#fff"/>
    </g>
    <g transform="translate(-107 -126)">
      <rect id="Rectangle_1-2" data-name="Rectangle 1" width="6" height="5" rx="2.5" transform="translate(125 128)" fill="#fff"/>
    </g>
    <g transform="translate(-89 -126)">
      <rect id="Rectangle_1-3" data-name="Rectangle 1" width="6" height="5" rx="2.5" transform="translate(125 128)" fill="#fff"/>
    </g>
    <g transform="translate(-71 -126)">
      <rect id="Rectangle_1-4" data-name="Rectangle 1" width="6" height="5" rx="2.5" transform="translate(125 128)" fill="#fff"/>
    </g>
    <g transform="translate(-53 -126)">
      <rect id="Rectangle_1-5" data-name="Rectangle 1" width="6" height="5" rx="2.5" transform="translate(125 128)" fill="#fff"/>
    </g>
    <g transform="translate(-35 -126)">
      <rect id="Rectangle_1-6" data-name="Rectangle 1" width="6" height="5" rx="2.5" transform="translate(125 128)" fill="#fff"/>
    </g>
    <g transform="translate(-17 -126)">
      <rect id="Rectangle_1-7" data-name="Rectangle 1" width="6" height="5" rx="2.5" transform="translate(125 128)" fill="#fff"/>
    </g>
    <g transform="translate(1 -126)">
      <rect id="Rectangle_1-8" data-name="Rectangle 1" width="6" height="5" rx="2.5" transform="translate(125 128)" fill="#fff"/>
    </g>
    <g transform="translate(19 -126)">
      <rect id="Rectangle_1-9" data-name="Rectangle 1" width="6" height="5" rx="2.5" transform="translate(125 128)" fill="#fff"/>
    </g>
    <g transform="translate(37 -126)">
      <rect id="Rectangle_1-10" data-name="Rectangle 1" width="6" height="5" rx="2.5" transform="translate(125 128)" fill="#fff"/>
    </g>
    <g transform="translate(55 -126)">
      <rect id="Rectangle_1-11" data-name="Rectangle 1" width="6" height="5" rx="2.5" transform="translate(125 128)" fill="#fff"/>
    </g>
    <g transform="translate(73 -126)">
      <rect id="Rectangle_1-12" data-name="Rectangle 1" width="6" height="5" rx="2.5" transform="translate(125 128)" fill="#fff"/>
    </g>
    <g transform="translate(91 -126)">
      <rect id="Rectangle_1-13" data-name="Rectangle 1" width="6" height="5" rx="2.5" transform="translate(125 128)" fill="#fff"/>
    </g>
    <g transform="translate(-125 -109)">
      <rect id="Rectangle_1-14" data-name="Rectangle 1" width="6" height="5" rx="2.5" transform="translate(125 128)" fill="#fff"/>
    </g>
    <g transform="translate(-107 -109)">
      <rect id="Rectangle_1-15" data-name="Rectangle 1" width="6" height="5" rx="2.5" transform="translate(125 128)" fill="#fff"/>
    </g>
    <g transform="translate(-89 -109)">
      <rect id="Rectangle_1-16" data-name="Rectangle 1" width="6" height="5" rx="2.5" transform="translate(125 128)" fill="#fff"/>
    </g>
    <g transform="translate(-71 -109)">
      <rect id="Rectangle_1-17" data-name="Rectangle 1" width="6" height="5" rx="2.5" transform="translate(125 128)" fill="#fff"/>
    </g>
    <g transform="translate(-53 -109)">
      <rect id="Rectangle_1-18" data-name="Rectangle 1" width="6" height="5" rx="2.5" transform="translate(125 128)" fill="#fff"/>
    </g>
    <g transform="translate(-35 -109)">
      <rect id="Rectangle_1-19" data-name="Rectangle 1" width="6" height="5" rx="2.5" transform="translate(125 128)" fill="#fff"/>
    </g>
    <g transform="translate(-17 -109)">
      <rect id="Rectangle_1-20" data-name="Rectangle 1" width="6" height="5" rx="2.5" transform="translate(125 128)" fill="#fff"/>
    </g>
    <g transform="translate(1 -109)">
      <rect id="Rectangle_1-21" data-name="Rectangle 1" width="6" height="5" rx="2.5" transform="translate(125 128)" fill="#fff"/>
    </g>
    <g transform="translate(19 -109)">
      <rect id="Rectangle_1-22" data-name="Rectangle 1" width="6" height="5" rx="2.5" transform="translate(125 128)" fill="#fff"/>
    </g>
    <g transform="translate(37 -109)">
      <rect id="Rectangle_1-23" data-name="Rectangle 1" width="6" height="5" rx="2.5" transform="translate(125 128)" fill="#fff"/>
    </g>
    <g transform="translate(55 -109)">
      <rect id="Rectangle_1-24" data-name="Rectangle 1" width="6" height="5" rx="2.5" transform="translate(125 128)" fill="#fff"/>
    </g>
    <g transform="translate(73 -109)">
      <rect id="Rectangle_1-25" data-name="Rectangle 1" width="6" height="5" rx="2.5" transform="translate(125 128)" fill="#fff"/>
    </g>
    <g transform="translate(91 -109)">
      <rect id="Rectangle_1-26" data-name="Rectangle 1" width="6" height="5" rx="2.5" transform="translate(125 128)" fill="#fff"/>
    </g>
    <g transform="translate(-125 -92)">
      <rect id="Rectangle_1-27" data-name="Rectangle 1" width="6" height="5" rx="2.5" transform="translate(125 128)" fill="#fff"/>
    </g>
    <g transform="translate(-107 -92)">
      <rect id="Rectangle_1-28" data-name="Rectangle 1" width="6" height="5" rx="2.5" transform="translate(125 128)" fill="#fff"/>
    </g>
    <g transform="translate(-89 -92)">
      <rect id="Rectangle_1-29" data-name="Rectangle 1" width="6" height="5" rx="2.5" transform="translate(125 128)" fill="#fff"/>
    </g>
    <g transform="translate(-71 -92)">
      <rect id="Rectangle_1-30" data-name="Rectangle 1" width="6" height="5" rx="2.5" transform="translate(125 128)" fill="#fff"/>
    </g>
    <g transform="translate(-53 -92)">
      <rect id="Rectangle_1-31" data-name="Rectangle 1" width="6" height="5" rx="2.5" transform="translate(125 128)" fill="#fff"/>
    </g>
    <g transform="translate(-35 -92)">
      <rect id="Rectangle_1-32" data-name="Rectangle 1" width="6" height="5" rx="2.5" transform="translate(125 128)" fill="#fff"/>
    </g>
    <g transform="translate(-17 -92)">
      <rect id="Rectangle_1-33" data-name="Rectangle 1" width="6" height="5" rx="2.5" transform="translate(125 128)" fill="#fff"/>
    </g>
    <g transform="translate(1 -92)">
      <rect id="Rectangle_1-34" data-name="Rectangle 1" width="6" height="5" rx="2.5" transform="translate(125 128)" fill="#fff"/>
    </g>
    <g transform="translate(19 -92)">
      <rect id="Rectangle_1-35" data-name="Rectangle 1" width="6" height="5" rx="2.5" transform="translate(125 128)" fill="#fff"/>
    </g>
    <g transform="translate(37 -92)">
      <rect id="Rectangle_1-36" data-name="Rectangle 1" width="6" height="5" rx="2.5" transform="translate(125 128)" fill="#fff"/>
    </g>
    <g transform="translate(55 -92)">
      <rect id="Rectangle_1-37" data-name="Rectangle 1" width="6" height="5" rx="2.5" transform="translate(125 128)" fill="#fff"/>
    </g>
    <g transform="translate(73 -92)">
      <rect id="Rectangle_1-38" data-name="Rectangle 1" width="6" height="5" rx="2.5" transform="translate(125 128)" fill="#fff"/>
    </g>
    <g transform="translate(91 -92)">
      <rect id="Rectangle_1-39" data-name="Rectangle 1" width="6" height="5" rx="2.5" transform="translate(125 128)" fill="#fff"/>
    </g>
    <g transform="translate(-125 -75)">
      <rect id="Rectangle_1-40" data-name="Rectangle 1" width="6" height="5" rx="2.5" transform="translate(125 128)" fill="#fff"/>
    </g>
    <g transform="translate(-107 -75)">
      <rect id="Rectangle_1-41" data-name="Rectangle 1" width="6" height="5" rx="2.5" transform="translate(125 128)" fill="#fff"/>
    </g>
    <g transform="translate(-89 -75)">
      <rect id="Rectangle_1-42" data-name="Rectangle 1" width="6" height="5" rx="2.5" transform="translate(125 128)" fill="#fff"/>
    </g>
    <g transform="translate(-71 -75)">
      <rect id="Rectangle_1-43" data-name="Rectangle 1" width="6" height="5" rx="2.5" transform="translate(125 128)" fill="#fff"/>
    </g>
    <g transform="translate(-53 -75)">
      <rect id="Rectangle_1-44" data-name="Rectangle 1" width="6" height="5" rx="2.5" transform="translate(125 128)" fill="#fff"/>
    </g>
    <g transform="translate(-35 -75)">
      <rect id="Rectangle_1-45" data-name="Rectangle 1" width="6" height="5" rx="2.5" transform="translate(125 128)" fill="#fff"/>
    </g>
    <g transform="translate(-17 -75)">
      <rect id="Rectangle_1-46" data-name="Rectangle 1" width="6" height="5" rx="2.5" transform="translate(125 128)" fill="#fff"/>
    </g>
    <g transform="translate(1 -75)">
      <rect id="Rectangle_1-47" data-name="Rectangle 1" width="6" height="5" rx="2.5" transform="translate(125 128)" fill="#fff"/>
    </g>
    <g transform="translate(19 -75)">
      <rect id="Rectangle_1-48" data-name="Rectangle 1" width="6" height="5" rx="2.5" transform="translate(125 128)" fill="#fff"/>
    </g>
    <g transform="translate(37 -75)">
      <rect id="Rectangle_1-49" data-name="Rectangle 1" width="6" height="5" rx="2.5" transform="translate(125 128)" fill="#fff"/>
    </g>
    <g transform="translate(55 -75)">
      <rect id="Rectangle_1-50" data-name="Rectangle 1" width="6" height="5" rx="2.5" transform="translate(125 128)" fill="#fff"/>
    </g>
    <g transform="translate(73 -75)">
      <rect id="Rectangle_1-51" data-name="Rectangle 1" width="6" height="5" rx="2.5" transform="translate(125 128)" fill="#fff"/>
    </g>
    <g transform="translate(91 -75)">
      <rect id="Rectangle_1-52" data-name="Rectangle 1" width="6" height="5" rx="2.5" transform="translate(125 128)" fill="#fff"/>
    </g>
    <g transform="translate(-125 -58)">
      <rect id="Rectangle_1-53" data-name="Rectangle 1" width="6" height="5" rx="2.5" transform="translate(125 128)" fill="#fff"/>
    </g>
    <g transform="translate(-107 -58)">
      <rect id="Rectangle_1-54" data-name="Rectangle 1" width="6" height="5" rx="2.5" transform="translate(125 128)" fill="#fff"/>
    </g>
    <g transform="translate(-89 -58)">
      <rect id="Rectangle_1-55" data-name="Rectangle 1" width="6" height="5" rx="2.5" transform="translate(125 128)" fill="#fff"/>
    </g>
    <g transform="translate(-71 -58)">
      <rect id="Rectangle_1-56" data-name="Rectangle 1" width="6" height="5" rx="2.5" transform="translate(125 128)" fill="#fff"/>
    </g>
    <g transform="translate(-53 -58)">
      <rect id="Rectangle_1-57" data-name="Rectangle 1" width="6" height="5" rx="2.5" transform="translate(125 128)" fill="#fff"/>
    </g>
    <g transform="translate(-35 -58)">
      <rect id="Rectangle_1-58" data-name="Rectangle 1" width="6" height="5" rx="2.5" transform="translate(125 128)" fill="#fff"/>
    </g>
    <g transform="translate(-17 -58)">
      <rect id="Rectangle_1-59" data-name="Rectangle 1" width="6" height="5" rx="2.5" transform="translate(125 128)" fill="#fff"/>
    </g>
    <g transform="translate(1 -58)">
      <rect id="Rectangle_1-60" data-name="Rectangle 1" width="6" height="5" rx="2.5" transform="translate(125 128)" fill="#fff"/>
    </g>
    <g transform="translate(19 -58)">
      <rect id="Rectangle_1-61" data-name="Rectangle 1" width="6" height="5" rx="2.5" transform="translate(125 128)" fill="#fff"/>
    </g>
    <g transform="translate(37 -58)">
      <rect id="Rectangle_1-62" data-name="Rectangle 1" width="6" height="5" rx="2.5" transform="translate(125 128)" fill="#fff"/>
    </g>
    <g transform="translate(55 -58)">
      <rect id="Rectangle_1-63" data-name="Rectangle 1" width="6" height="5" rx="2.5" transform="translate(125 128)" fill="#fff"/>
    </g>
    <g transform="translate(73 -58)">
      <rect id="Rectangle_1-64" data-name="Rectangle 1" width="6" height="5" rx="2.5" transform="translate(125 128)" fill="#fff"/>
    </g>
    <g transform="translate(91 -58)">
      <rect id="Rectangle_1-65" data-name="Rectangle 1" width="6" height="5" rx="2.5" transform="translate(125 128)" fill="#fff"/>
    </g>
    <g transform="translate(-125 -41)">
      <rect id="Rectangle_1-66" data-name="Rectangle 1" width="6" height="5" rx="2.5" transform="translate(125 128)" fill="#fff"/>
    </g>
    <g transform="translate(-107 -41)">
      <rect id="Rectangle_1-67" data-name="Rectangle 1" width="6" height="5" rx="2.5" transform="translate(125 128)" fill="#fff"/>
    </g>
    <g transform="translate(-89 -41)">
      <rect id="Rectangle_1-68" data-name="Rectangle 1" width="6" height="5" rx="2.5" transform="translate(125 128)" fill="#fff"/>
    </g>
    <g transform="translate(-71 -41)">
      <rect id="Rectangle_1-69" data-name="Rectangle 1" width="6" height="5" rx="2.5" transform="translate(125 128)" fill="#fff"/>
    </g>
    <g transform="translate(-53 -41)">
      <rect id="Rectangle_1-70" data-name="Rectangle 1" width="6" height="5" rx="2.5" transform="translate(125 128)" fill="#fff"/>
    </g>
    <g transform="translate(-35 -41)">
      <rect id="Rectangle_1-71" data-name="Rectangle 1" width="6" height="5" rx="2.5" transform="translate(125 128)" fill="#fff"/>
    </g>
    <g transform="translate(-17 -41)">
      <rect id="Rectangle_1-72" data-name="Rectangle 1" width="6" height="5" rx="2.5" transform="translate(125 128)" fill="#fff"/>
    </g>
    <g transform="translate(1 -41)">
      <rect id="Rectangle_1-73" data-name="Rectangle 1" width="6" height="5" rx="2.5" transform="translate(125 128)" fill="#fff"/>
    </g>
    <g transform="translate(19 -41)">
      <rect id="Rectangle_1-74" data-name="Rectangle 1" width="6" height="5" rx="2.5" transform="translate(125 128)" fill="#fff"/>
    </g>
    <g transform="translate(37 -41)">
      <rect id="Rectangle_1-75" data-name="Rectangle 1" width="6" height="5" rx="2.5" transform="translate(125 128)" fill="#fff"/>
    </g>
    <g transform="translate(55 -41)">
      <rect id="Rectangle_1-76" data-name="Rectangle 1" width="6" height="5" rx="2.5" transform="translate(125 128)" fill="#fff"/>
    </g>
    <g transform="translate(73 -41)">
      <rect id="Rectangle_1-77" data-name="Rectangle 1" width="6" height="5" rx="2.5" transform="translate(125 128)" fill="#fff"/>
    </g>
    <g transform="translate(91 -41)">
      <rect id="Rectangle_1-78" data-name="Rectangle 1" width="6" height="5" rx="2.5" transform="translate(125 128)" fill="#fff"/>
    </g>
    <g transform="translate(-125 -24)">
      <rect id="Rectangle_1-79" data-name="Rectangle 1" width="6" height="5" rx="2.5" transform="translate(125 128)" fill="#fff"/>
    </g>
    <g transform="translate(-107 -24)">
      <rect id="Rectangle_1-80" data-name="Rectangle 1" width="6" height="5" rx="2.5" transform="translate(125 128)" fill="#fff"/>
    </g>
    <g transform="translate(-89 -24)">
      <rect id="Rectangle_1-81" data-name="Rectangle 1" width="6" height="5" rx="2.5" transform="translate(125 128)" fill="#fff"/>
    </g>
    <g transform="translate(-71 -24)">
      <rect id="Rectangle_1-82" data-name="Rectangle 1" width="6" height="5" rx="2.5" transform="translate(125 128)" fill="#fff"/>
    </g>
    <g transform="translate(-53 -24)">
      <rect id="Rectangle_1-83" data-name="Rectangle 1" width="6" height="5" rx="2.5" transform="translate(125 128)" fill="#fff"/>
    </g>
    <g transform="translate(-35 -24)">
      <rect id="Rectangle_1-84" data-name="Rectangle 1" width="6" height="5" rx="2.5" transform="translate(125 128)" fill="#fff"/>
    </g>
    <g transform="translate(-17 -24)">
      <rect id="Rectangle_1-85" data-name="Rectangle 1" width="6" height="5" rx="2.5" transform="translate(125 128)" fill="#fff"/>
    </g>
    <g transform="translate(1 -24)">
      <rect id="Rectangle_1-86" data-name="Rectangle 1" width="6" height="5" rx="2.5" transform="translate(125 128)" fill="#fff"/>
    </g>
    <g transform="translate(19 -24)">
      <rect id="Rectangle_1-87" data-name="Rectangle 1" width="6" height="5" rx="2.5" transform="translate(125 128)" fill="#fff"/>
    </g>
    <g transform="translate(37 -24)">
      <rect id="Rectangle_1-88" data-name="Rectangle 1" width="6" height="5" rx="2.5" transform="translate(125 128)" fill="#fff"/>
    </g>
    <g transform="translate(55 -24)">
      <rect id="Rectangle_1-89" data-name="Rectangle 1" width="6" height="5" rx="2.5" transform="translate(125 128)" fill="#fff"/>
    </g>
    <g transform="translate(73 -24)">
      <rect id="Rectangle_1-90" data-name="Rectangle 1" width="6" height="5" rx="2.5" transform="translate(125 128)" fill="#fff"/>
    </g>
    <g transform="translate(91 -24)">
      <rect id="Rectangle_1-91" data-name="Rectangle 1" width="6" height="5" rx="2.5" transform="translate(125 128)" fill="#fff"/>
    </g>
    <g transform="translate(-125 -7)">
      <rect id="Rectangle_1-92" data-name="Rectangle 1" width="6" height="5" rx="2.5" transform="translate(125 128)" fill="#fff"/>
    </g>
    <g transform="translate(-107 -7)">
      <rect id="Rectangle_1-93" data-name="Rectangle 1" width="6" height="5" rx="2.5" transform="translate(125 128)" fill="#fff"/>
    </g>
    <g transform="translate(-89 -7)">
      <rect id="Rectangle_1-94" data-name="Rectangle 1" width="6" height="5" rx="2.5" transform="translate(125 128)" fill="#fff"/>
    </g>
    <g transform="translate(-71 -7)">
      <rect id="Rectangle_1-95" data-name="Rectangle 1" width="6" height="5" rx="2.5" transform="translate(125 128)" fill="#fff"/>
    </g>
    <g transform="translate(-53 -7)">
      <rect id="Rectangle_1-96" data-name="Rectangle 1" width="6" height="5" rx="2.5" transform="translate(125 128)" fill="#fff"/>
    </g>
    <g transform="translate(-35 -7)">
      <rect id="Rectangle_1-97" data-name="Rectangle 1" width="6" height="5" rx="2.5" transform="translate(125 128)" fill="#fff"/>
    </g>
    <g transform="translate(-17 -7)">
      <rect id="Rectangle_1-98" data-name="Rectangle 1" width="6" height="5" rx="2.5" transform="translate(125 128)" fill="#fff"/>
    </g>
    <g transform="translate(1 -7)">
      <rect id="Rectangle_1-99" data-name="Rectangle 1" width="6" height="5" rx="2.5" transform="translate(125 128)" fill="#fff"/>
    </g>
    <g transform="translate(19 -7)">
      <rect id="Rectangle_1-100" data-name="Rectangle 1" width="6" height="5" rx="2.5" transform="translate(125 128)" fill="#fff"/>
    </g>
    <g transform="translate(37 -7)">
      <rect id="Rectangle_1-101" data-name="Rectangle 1" width="6" height="5" rx="2.5" transform="translate(125 128)" fill="#fff"/>
    </g>
    <g transform="translate(55 -7)">
      <rect id="Rectangle_1-102" data-name="Rectangle 1" width="6" height="5" rx="2.5" transform="translate(125 128)" fill="#fff"/>
    </g>
    <g transform="translate(73 -7)">
      <rect id="Rectangle_1-103" data-name="Rectangle 1" width="6" height="5" rx="2.5" transform="translate(125 128)" fill="#fff"/>
    </g>
    <g transform="translate(91 -7)">
      <rect id="Rectangle_1-104" data-name="Rectangle 1" width="6" height="5" rx="2.5" transform="translate(125 128)" fill="#fff"/>
    </g>
    <g transform="translate(-125 10)">
      <rect id="Rectangle_1-105" data-name="Rectangle 1" width="6" height="5" rx="2.5" transform="translate(125 128)" fill="#fff"/>
    </g>
    <g transform="translate(-107 10)">
      <rect id="Rectangle_1-106" data-name="Rectangle 1" width="6" height="5" rx="2.5" transform="translate(125 128)" fill="#fff"/>
    </g>
    <g transform="translate(-89 10)">
      <rect id="Rectangle_1-107" data-name="Rectangle 1" width="6" height="5" rx="2.5" transform="translate(125 128)" fill="#fff"/>
    </g>
    <g transform="translate(-71 10)">
      <rect id="Rectangle_1-108" data-name="Rectangle 1" width="6" height="5" rx="2.5" transform="translate(125 128)" fill="#fff"/>
    </g>
    <g transform="translate(-53 10)">
      <rect id="Rectangle_1-109" data-name="Rectangle 1" width="6" height="5" rx="2.5" transform="translate(125 128)" fill="#fff"/>
    </g>
    <g transform="translate(-35 10)">
      <rect id="Rectangle_1-110" data-name="Rectangle 1" width="6" height="5" rx="2.5" transform="translate(125 128)" fill="#fff"/>
    </g>
    <g transform="translate(-17 10)">
      <rect id="Rectangle_1-111" data-name="Rectangle 1" width="6" height="5" rx="2.5" transform="translate(125 128)" fill="#fff"/>
    </g>
    <g transform="translate(1 10)">
      <rect id="Rectangle_1-112" data-name="Rectangle 1" width="6" height="5" rx="2.5" transform="translate(125 128)" fill="#fff"/>
    </g>
    <g transform="translate(19 10)">
      <rect id="Rectangle_1-113" data-name="Rectangle 1" width="6" height="5" rx="2.5" transform="translate(125 128)" fill="#fff"/>
    </g>
    <g transform="translate(37 10)">
      <rect id="Rectangle_1-114" data-name="Rectangle 1" width="6" height="5" rx="2.5" transform="translate(125 128)" fill="#fff"/>
    </g>
    <g transform="translate(55 10)">
      <rect id="Rectangle_1-115" data-name="Rectangle 1" width="6" height="5" rx="2.5" transform="translate(125 128)" fill="#fff"/>
    </g>
    <g transform="translate(73 10)">
      <rect id="Rectangle_1-116" data-name="Rectangle 1" width="6" height="5" rx="2.5" transform="translate(125 128)" fill="#fff"/>
    </g>
    <g transform="translate(91 10)">
      <rect id="Rectangle_1-117" data-name="Rectangle 1" width="6" height="5" rx="2.5" transform="translate(125 128)" fill="#fff"/>
    </g>
    <g transform="translate(-125 27)">
      <rect id="Rectangle_1-118" data-name="Rectangle 1" width="6" height="5" rx="2.5" transform="translate(125 128)" fill="#fff"/>
    </g>
    <g transform="translate(-107 27)">
      <rect id="Rectangle_1-119" data-name="Rectangle 1" width="6" height="5" rx="2.5" transform="translate(125 128)" fill="#fff"/>
    </g>
    <g transform="translate(-89 27)">
      <rect id="Rectangle_1-120" data-name="Rectangle 1" width="6" height="5" rx="2.5" transform="translate(125 128)" fill="#fff"/>
    </g>
    <g transform="translate(-71 27)">
      <rect id="Rectangle_1-121" data-name="Rectangle 1" width="6" height="5" rx="2.5" transform="translate(125 128)" fill="#fff"/>
    </g>
    <g transform="translate(-53 27)">
      <rect id="Rectangle_1-122" data-name="Rectangle 1" width="6" height="5" rx="2.5" transform="translate(125 128)" fill="#fff"/>
    </g>
    <g transform="translate(-35 27)">
      <rect id="Rectangle_1-123" data-name="Rectangle 1" width="6" height="5" rx="2.5" transform="translate(125 128)" fill="#fff"/>
    </g>
    <g transform="translate(-17 27)">
      <rect id="Rectangle_1-124" data-name="Rectangle 1" width="6" height="5" rx="2.5" transform="translate(125 128)" fill="#fff"/>
    </g>
    <g transform="translate(1 27)">
      <rect id="Rectangle_1-125" data-name="Rectangle 1" width="6" height="5" rx="2.5" transform="translate(125 128)" fill="#fff"/>
    </g>
    <g transform="translate(19 27)">
      <rect id="Rectangle_1-126" data-name="Rectangle 1" width="6" height="5" rx="2.5" transform="translate(125 128)" fill="#fff"/>
    </g>
    <g transform="translate(37 27)">
      <rect id="Rectangle_1-127" data-name="Rectangle 1" width="6" height="5" rx="2.5" transform="translate(125 128)" fill="#fff"/>
    </g>
    <g transform="translate(55 27)">
      <rect id="Rectangle_1-128" data-name="Rectangle 1" width="6" height="5" rx="2.5" transform="translate(125 128)" fill="#fff"/>
    </g>
    <g transform="translate(73 27)">
      <rect id="Rectangle_1-129" data-name="Rectangle 1" width="6" height="5" rx="2.5" transform="translate(125 128)" fill="#fff"/>
    </g>
    <g transform="translate(91 27)">
      <rect id="Rectangle_1-130" data-name="Rectangle 1" width="6" height="5" rx="2.5" transform="translate(125 128)" fill="#fff"/>
    </g>
    <g transform="translate(-125 44)">
      <rect id="Rectangle_1-131" data-name="Rectangle 1" width="6" height="5" rx="2.5" transform="translate(125 128)" fill="#fff"/>
    </g>
    <g transform="translate(-107 44)">
      <rect id="Rectangle_1-132" data-name="Rectangle 1" width="6" height="5" rx="2.5" transform="translate(125 128)" fill="#fff"/>
    </g>
    <g transform="translate(-89 44)">
      <rect id="Rectangle_1-133" data-name="Rectangle 1" width="6" height="5" rx="2.5" transform="translate(125 128)" fill="#fff"/>
    </g>
    <g transform="translate(-71 44)">
      <rect id="Rectangle_1-134" data-name="Rectangle 1" width="6" height="5" rx="2.5" transform="translate(125 128)" fill="#fff"/>
    </g>
    <g transform="translate(-53 44)">
      <rect id="Rectangle_1-135" data-name="Rectangle 1" width="6" height="5" rx="2.5" transform="translate(125 128)" fill="#fff"/>
    </g>
    <g transform="translate(-35 44)">
      <rect id="Rectangle_1-136" data-name="Rectangle 1" width="6" height="5" rx="2.5" transform="translate(125 128)" fill="#fff"/>
    </g>
    <g transform="translate(-17 44)">
      <rect id="Rectangle_1-137" data-name="Rectangle 1" width="6" height="5" rx="2.5" transform="translate(125 128)" fill="#fff"/>
    </g>
    <g transform="translate(1 44)">
      <rect id="Rectangle_1-138" data-name="Rectangle 1" width="6" height="5" rx="2.5" transform="translate(125 128)" fill="#fff"/>
    </g>
    <g transform="translate(19 44)">
      <rect id="Rectangle_1-139" data-name="Rectangle 1" width="6" height="5" rx="2.5" transform="translate(125 128)" fill="#fff"/>
    </g>
    <g transform="translate(37 44)">
      <rect id="Rectangle_1-140" data-name="Rectangle 1" width="6" height="5" rx="2.5" transform="translate(125 128)" fill="#fff"/>
    </g>
    <g transform="translate(55 44)">
      <rect id="Rectangle_1-141" data-name="Rectangle 1" width="6" height="5" rx="2.5" transform="translate(125 128)" fill="#fff"/>
    </g>
    <g transform="translate(73 44)">
      <rect id="Rectangle_1-142" data-name="Rectangle 1" width="6" height="5" rx="2.5" transform="translate(125 128)" fill="#fff"/>
    </g>
    <g transform="translate(91 44)">
      <rect id="Rectangle_1-143" data-name="Rectangle 1" width="6" height="5" rx="2.5" transform="translate(125 128)" fill="#fff"/>
    </g>
    <g transform="translate(-125 61)">
      <rect id="Rectangle_1-144" data-name="Rectangle 1" width="6" height="5" rx="2.5" transform="translate(125 128)" fill="#fff"/>
    </g>
    <g transform="translate(-107 61)">
      <rect id="Rectangle_1-145" data-name="Rectangle 1" width="6" height="5" rx="2.5" transform="translate(125 128)" fill="#fff"/>
    </g>
    <g transform="translate(-89 61)">
      <rect id="Rectangle_1-146" data-name="Rectangle 1" width="6" height="5" rx="2.5" transform="translate(125 128)" fill="#fff"/>
    </g>
    <g transform="translate(-71 61)">
      <rect id="Rectangle_1-147" data-name="Rectangle 1" width="6" height="5" rx="2.5" transform="translate(125 128)" fill="#fff"/>
    </g>
    <g transform="translate(-53 61)">
      <rect id="Rectangle_1-148" data-name="Rectangle 1" width="6" height="5" rx="2.5" transform="translate(125 128)" fill="#fff"/>
    </g>
    <g transform="translate(-35 61)">
      <rect id="Rectangle_1-149" data-name="Rectangle 1" width="6" height="5" rx="2.5" transform="translate(125 128)" fill="#fff"/>
    </g>
    <g transform="translate(-17 61)">
      <rect id="Rectangle_1-150" data-name="Rectangle 1" width="6" height="5" rx="2.5" transform="translate(125 128)" fill="#fff"/>
    </g>
    <g transform="translate(1 61)">
      <rect id="Rectangle_1-151" data-name="Rectangle 1" width="6" height="5" rx="2.5" transform="translate(125 128)" fill="#fff"/>
    </g>
    <g transform="translate(19 61)">
      <rect id="Rectangle_1-152" data-name="Rectangle 1" width="6" height="5" rx="2.5" transform="translate(125 128)" fill="#fff"/>
    </g>
    <g transform="translate(37 61)">
      <rect id="Rectangle_1-153" data-name="Rectangle 1" width="6" height="5" rx="2.5" transform="translate(125 128)" fill="#fff"/>
    </g>
    <g transform="translate(55 61)">
      <rect id="Rectangle_1-154" data-name="Rectangle 1" width="6" height="5" rx="2.5" transform="translate(125 128)" fill="#fff"/>
    </g>
    <g transform="translate(73 61)">
      <rect id="Rectangle_1-155" data-name="Rectangle 1" width="6" height="5" rx="2.5" transform="translate(125 128)" fill="#fff"/>
    </g>
    <g transform="translate(91 61)">
      <rect id="Rectangle_1-156" data-name="Rectangle 1" width="6" height="5" rx="2.5" transform="translate(125 128)" fill="#fff"/>
    </g>
    <g transform="translate(-125 78)">
      <rect id="Rectangle_1-157" data-name="Rectangle 1" width="6" height="5" rx="2.5" transform="translate(125 128)" fill="#fff"/>
    </g>
    <g transform="translate(-107 78)">
      <rect id="Rectangle_1-158" data-name="Rectangle 1" width="6" height="5" rx="2.5" transform="translate(125 128)" fill="#fff"/>
    </g>
    <g transform="translate(-89 78)">
      <rect id="Rectangle_1-159" data-name="Rectangle 1" width="6" height="5" rx="2.5" transform="translate(125 128)" fill="#fff"/>
    </g>
    <g transform="translate(-71 78)">
      <rect id="Rectangle_1-160" data-name="Rectangle 1" width="6" height="5" rx="2.5" transform="translate(125 128)" fill="#fff"/>
    </g>
    <g transform="translate(-53 78)">
      <rect id="Rectangle_1-161" data-name="Rectangle 1" width="6" height="5" rx="2.5" transform="translate(125 128)" fill="#fff"/>
    </g>
    <g transform="translate(-35 78)">
      <rect id="Rectangle_1-162" data-name="Rectangle 1" width="6" height="5" rx="2.5" transform="translate(125 128)" fill="#fff"/>
    </g>
    <g transform="translate(-17 78)">
      <rect id="Rectangle_1-163" data-name="Rectangle 1" width="6" height="5" rx="2.5" transform="translate(125 128)" fill="#fff"/>
    </g>
    <g transform="translate(1 78)">
      <rect id="Rectangle_1-164" data-name="Rectangle 1" width="6" height="5" rx="2.5" transform="translate(125 128)" fill="#fff"/>
    </g>
    <g transform="translate(19 78)">
      <rect id="Rectangle_1-165" data-name="Rectangle 1" width="6" height="5" rx="2.5" transform="translate(125 128)" fill="#fff"/>
    </g>
    <g transform="translate(37 78)">
      <rect id="Rectangle_1-166" data-name="Rectangle 1" width="6" height="5" rx="2.5" transform="translate(125 128)" fill="#fff"/>
    </g>
    <g transform="translate(55 78)">
      <rect id="Rectangle_1-167" data-name="Rectangle 1" width="6" height="5" rx="2.5" transform="translate(125 128)" fill="#fff"/>
    </g>
    <g transform="translate(73 78)">
      <rect id="Rectangle_1-168" data-name="Rectangle 1" width="6" height="5" rx="2.5" transform="translate(125 128)" fill="#fff"/>
    </g>
    <g transform="translate(91 78)">
      <rect id="Rectangle_1-169" data-name="Rectangle 1" width="6" height="5" rx="2.5" transform="translate(125 128)" fill="#fff"/>
    </g>
    <g transform="translate(-125 95)">
      <rect id="Rectangle_1-170" data-name="Rectangle 1" width="6" height="5" rx="2.5" transform="translate(125 128)" fill="#fff"/>
    </g>
    <g transform="translate(-107 95)">
      <rect id="Rectangle_1-171" data-name="Rectangle 1" width="6" height="5" rx="2.5" transform="translate(125 128)" fill="#fff"/>
    </g>
    <g transform="translate(-89 95)">
      <rect id="Rectangle_1-172" data-name="Rectangle 1" width="6" height="5" rx="2.5" transform="translate(125 128)" fill="#fff"/>
    </g>
    <g transform="translate(-71 95)">
      <rect id="Rectangle_1-173" data-name="Rectangle 1" width="6" height="5" rx="2.5" transform="translate(125 128)" fill="#fff"/>
    </g>
    <g transform="translate(-53 95)">
      <rect id="Rectangle_1-174" data-name="Rectangle 1" width="6" height="5" rx="2.5" transform="translate(125 128)" fill="#fff"/>
    </g>
    <g transform="translate(-35 95)">
      <rect id="Rectangle_1-175" data-name="Rectangle 1" width="6" height="5" rx="2.5" transform="translate(125 128)" fill="#fff"/>
    </g>
    <g transform="translate(-17 95)">
      <rect id="Rectangle_1-176" data-name="Rectangle 1" width="6" height="5" rx="2.5" transform="translate(125 128)" fill="#fff"/>
    </g>
    <g transform="translate(1 95)">
      <rect id="Rectangle_1-177" data-name="Rectangle 1" width="6" height="5" rx="2.5" transform="translate(125 128)" fill="#fff"/>
    </g>
    <g transform="translate(19 95)">
      <rect id="Rectangle_1-178" data-name="Rectangle 1" width="6" height="5" rx="2.5" transform="translate(125 128)" fill="#fff"/>
    </g>
    <g transform="translate(37 95)">
      <rect id="Rectangle_1-179" data-name="Rectangle 1" width="6" height="5" rx="2.5" transform="translate(125 128)" fill="#fff"/>
    </g>
    <g transform="translate(55 95)">
      <rect id="Rectangle_1-180" data-name="Rectangle 1" width="6" height="5" rx="2.5" transform="translate(125 128)" fill="#fff"/>
    </g>
    <g transform="translate(73 95)">
      <rect id="Rectangle_1-181" data-name="Rectangle 1" width="6" height="5" rx="2.5" transform="translate(125 128)" fill="#fff"/>
    </g>
    <g transform="translate(91 95)">
      <rect id="Rectangle_1-182" data-name="Rectangle 1" width="6" height="5" rx="2.5" transform="translate(125 128)" fill="#fff"/>
    </g>
    <g transform="translate(-125 112)">
      <rect id="Rectangle_1-183" data-name="Rectangle 1" width="6" height="5" rx="2.5" transform="translate(125 128)" fill="#fff"/>
    </g>
    <g transform="translate(-107 112)">
      <rect id="Rectangle_1-184" data-name="Rectangle 1" width="6" height="5" rx="2.5" transform="translate(125 128)" fill="#fff"/>
    </g>
    <g transform="translate(-89 112)">
      <rect id="Rectangle_1-185" data-name="Rectangle 1" width="6" height="5" rx="2.5" transform="translate(125 128)" fill="#fff"/>
    </g>
    <g transform="translate(-71 112)">
      <rect id="Rectangle_1-186" data-name="Rectangle 1" width="6" height="5" rx="2.5" transform="translate(125 128)" fill="#fff"/>
    </g>
    <g transform="translate(-53 112)">
      <rect id="Rectangle_1-187" data-name="Rectangle 1" width="6" height="5" rx="2.5" transform="translate(125 128)" fill="#fff"/>
    </g>
    <g transform="translate(-35 112)">
      <rect id="Rectangle_1-188" data-name="Rectangle 1" width="6" height="5" rx="2.5" transform="translate(125 128)" fill="#fff"/>
    </g>
    <g transform="translate(-17 112)">
      <rect id="Rectangle_1-189" data-name="Rectangle 1" width="6" height="5" rx="2.5" transform="translate(125 128)" fill="#fff"/>
    </g>
    <g transform="translate(1 112)">
      <rect id="Rectangle_1-190" data-name="Rectangle 1" width="6" height="5" rx="2.5" transform="translate(125 128)" fill="#fff"/>
    </g>
    <g transform="translate(19 112)">
      <rect id="Rectangle_1-191" data-name="Rectangle 1" width="6" height="5" rx="2.5" transform="translate(125 128)" fill="#fff"/>
    </g>
    <g transform="translate(37 112)">
      <rect id="Rectangle_1-192" data-name="Rectangle 1" width="6" height="5" rx="2.5" transform="translate(125 128)" fill="#fff"/>
    </g>
    <g transform="translate(55 112)">
      <rect id="Rectangle_1-193" data-name="Rectangle 1" width="6" height="5" rx="2.5" transform="translate(125 128)" fill="#fff"/>
    </g>
    <g transform="translate(73 112)">
      <rect id="Rectangle_1-194" data-name="Rectangle 1" width="6" height="5" rx="2.5" transform="translate(125 128)" fill="#fff"/>
    </g>
    <g transform="translate(91 112)">
      <rect id="Rectangle_1-195" data-name="Rectangle 1" width="6" height="5" rx="2.5" transform="translate(125 128)" fill="#fff"/>
    </g>
    <g transform="translate(-125 129)">
      <rect id="Rectangle_1-196" data-name="Rectangle 1" width="6" height="5" rx="2.5" transform="translate(125 128)" fill="#fff"/>
    </g>
    <g transform="translate(-107 129)">
      <rect id="Rectangle_1-197" data-name="Rectangle 1" width="6" height="5" rx="2.5" transform="translate(125 128)" fill="#fff"/>
    </g>
    <g transform="translate(-89 129)">
      <rect id="Rectangle_1-198" data-name="Rectangle 1" width="6" height="5" rx="2.5" transform="translate(125 128)" fill="#fff"/>
    </g>
    <g transform="translate(-71 129)">
      <rect id="Rectangle_1-199" data-name="Rectangle 1" width="6" height="5" rx="2.5" transform="translate(125 128)" fill="#fff"/>
    </g>
    <g transform="translate(-53 129)">
      <rect id="Rectangle_1-200" data-name="Rectangle 1" width="6" height="5" rx="2.5" transform="translate(125 128)" fill="#fff"/>
    </g>
    <g transform="translate(-35 129)">
      <rect id="Rectangle_1-201" data-name="Rectangle 1" width="6" height="5" rx="2.5" transform="translate(125 128)" fill="#fff"/>
    </g>
    <g transform="translate(-17 129)">
      <rect id="Rectangle_1-202" data-name="Rectangle 1" width="6" height="5" rx="2.5" transform="translate(125 128)" fill="#fff"/>
    </g>
    <g transform="translate(1 129)">
      <rect id="Rectangle_1-203" data-name="Rectangle 1" width="6" height="5" rx="2.5" transform="translate(125 128)" fill="#fff"/>
    </g>
    <g transform="translate(19 129)">
      <rect id="Rectangle_1-204" data-name="Rectangle 1" width="6" height="5" rx="2.5" transform="translate(125 128)" fill="#fff"/>
    </g>
    <g transform="translate(37 129)">
      <rect id="Rectangle_1-205" data-name="Rectangle 1" width="6" height="5" rx="2.5" transform="translate(125 128)" fill="#fff"/>
    </g>
    <g transform="translate(55 129)">
      <rect id="Rectangle_1-206" data-name="Rectangle 1" width="6" height="5" rx="2.5" transform="translate(125 128)" fill="#fff"/>
    </g>
    <g transform="translate(73 129)">
      <rect id="Rectangle_1-207" data-name="Rectangle 1" width="6" height="5" rx="2.5" transform="translate(125 128)" fill="#fff"/>
    </g>
    <g transform="translate(91 129)">
      <rect id="Rectangle_1-208" data-name="Rectangle 1" width="6" height="5" rx="2.5" transform="translate(125 128)" fill="#fff"/>
    </g>
    <g transform="translate(-125 146)">
      <rect id="Rectangle_1-209" data-name="Rectangle 1" width="6" height="5" rx="2.5" transform="translate(125 128)" fill="#fff"/>
    </g>
    <g transform="translate(-107 146)">
      <rect id="Rectangle_1-210" data-name="Rectangle 1" width="6" height="5" rx="2.5" transform="translate(125 128)" fill="#fff"/>
    </g>
    <g transform="translate(-89 146)">
      <rect id="Rectangle_1-211" data-name="Rectangle 1" width="6" height="5" rx="2.5" transform="translate(125 128)" fill="#fff"/>
    </g>
    <g transform="translate(-71 146)">
      <rect id="Rectangle_1-212" data-name="Rectangle 1" width="6" height="5" rx="2.5" transform="translate(125 128)" fill="#fff"/>
    </g>
    <g transform="translate(-53 146)">
      <rect id="Rectangle_1-213" data-name="Rectangle 1" width="6" height="5" rx="2.5" transform="translate(125 128)" fill="#fff"/>
    </g>
    <g transform="translate(-35 146)">
      <rect id="Rectangle_1-214" data-name="Rectangle 1" width="6" height="5" rx="2.5" transform="translate(125 128)" fill="#fff"/>
    </g>
    <g transform="translate(-17 146)">
      <rect id="Rectangle_1-215" data-name="Rectangle 1" width="6" height="5" rx="2.5" transform="translate(125 128)" fill="#fff"/>
    </g>
    <g transform="translate(1 146)">
      <rect id="Rectangle_1-216" data-name="Rectangle 1" width="6" height="5" rx="2.5" transform="translate(125 128)" fill="#fff"/>
    </g>
    <g transform="translate(19 146)">
      <rect id="Rectangle_1-217" data-name="Rectangle 1" width="6" height="5" rx="2.5" transform="translate(125 128)" fill="#fff"/>
    </g>
    <g transform="translate(37 146)">
      <rect id="Rectangle_1-218" data-name="Rectangle 1" width="6" height="5" rx="2.5" transform="translate(125 128)" fill="#fff"/>
    </g>
    <g transform="translate(55 146)">
      <rect id="Rectangle_1-219" data-name="Rectangle 1" width="6" height="5" rx="2.5" transform="translate(125 128)" fill="#fff"/>
    </g>
    <g transform="translate(73 146)">
      <rect id="Rectangle_1-220" data-name="Rectangle 1" width="6" height="5" rx="2.5" transform="translate(125 128)" fill="#fff"/>
    </g>
    <g transform="translate(91 146)">
      <rect id="Rectangle_1-221" data-name="Rectangle 1" width="6" height="5" rx="2.5" transform="translate(125 128)" fill="#fff"/>
    </g>
    <g transform="translate(-125 163)">
      <rect id="Rectangle_1-222" data-name="Rectangle 1" width="6" height="5" rx="2.5" transform="translate(125 128)" fill="#fff"/>
    </g>
    <g transform="translate(-107 163)">
      <rect id="Rectangle_1-223" data-name="Rectangle 1" width="6" height="5" rx="2.5" transform="translate(125 128)" fill="#fff"/>
    </g>
    <g transform="translate(-89 163)">
      <rect id="Rectangle_1-224" data-name="Rectangle 1" width="6" height="5" rx="2.5" transform="translate(125 128)" fill="#fff"/>
    </g>
    <g transform="translate(-71 163)">
      <rect id="Rectangle_1-225" data-name="Rectangle 1" width="6" height="5" rx="2.5" transform="translate(125 128)" fill="#fff"/>
    </g>
    <g transform="translate(-53 163)">
      <rect id="Rectangle_1-226" data-name="Rectangle 1" width="6" height="5" rx="2.5" transform="translate(125 128)" fill="#fff"/>
    </g>
    <g transform="translate(-35 163)">
      <rect id="Rectangle_1-227" data-name="Rectangle 1" width="6" height="5" rx="2.5" transform="translate(125 128)" fill="#fff"/>
    </g>
    <g transform="translate(-17 163)">
      <rect id="Rectangle_1-228" data-name="Rectangle 1" width="6" height="5" rx="2.5" transform="translate(125 128)" fill="#fff"/>
    </g>
    <g transform="translate(1 163)">
      <rect id="Rectangle_1-229" data-name="Rectangle 1" width="6" height="5" rx="2.5" transform="translate(125 128)" fill="#fff"/>
    </g>
    <g transform="translate(19 163)">
      <rect id="Rectangle_1-230" data-name="Rectangle 1" width="6" height="5" rx="2.5" transform="translate(125 128)" fill="#fff"/>
    </g>
    <g transform="translate(37 163)">
      <rect id="Rectangle_1-231" data-name="Rectangle 1" width="6" height="5" rx="2.5" transform="translate(125 128)" fill="#fff"/>
    </g>
    <g transform="translate(55 163)">
      <rect id="Rectangle_1-232" data-name="Rectangle 1" width="6" height="5" rx="2.5" transform="translate(125 128)" fill="#fff"/>
    </g>
    <g transform="translate(73 163)">
      <rect id="Rectangle_1-233" data-name="Rectangle 1" width="6" height="5" rx="2.5" transform="translate(125 128)" fill="#fff"/>
    </g>
    <g transform="translate(91 163)">
      <rect id="Rectangle_1-234" data-name="Rectangle 1" width="6" height="5" rx="2.5" transform="translate(125 128)" fill="#fff"/>
    </g>
    <g transform="translate(-125 180)">
      <rect id="Rectangle_1-235" data-name="Rectangle 1" width="6" height="5" rx="2.5" transform="translate(125 128)" fill="#fff"/>
    </g>
    <g transform="translate(-107 180)">
      <rect id="Rectangle_1-236" data-name="Rectangle 1" width="6" height="5" rx="2.5" transform="translate(125 128)" fill="#fff"/>
    </g>
    <g transform="translate(-89 180)">
      <rect id="Rectangle_1-237" data-name="Rectangle 1" width="6" height="5" rx="2.5" transform="translate(125 128)" fill="#fff"/>
    </g>
    <g transform="translate(-71 180)">
      <rect id="Rectangle_1-238" data-name="Rectangle 1" width="6" height="5" rx="2.5" transform="translate(125 128)" fill="#fff"/>
    </g>
    <g transform="translate(-53 180)">
      <rect id="Rectangle_1-239" data-name="Rectangle 1" width="6" height="5" rx="2.5" transform="translate(125 128)" fill="#fff"/>
    </g>
    <g transform="translate(-35 180)">
      <rect id="Rectangle_1-240" data-name="Rectangle 1" width="6" height="5" rx="2.5" transform="translate(125 128)" fill="#fff"/>
    </g>
    <g transform="translate(-17 180)">
      <rect id="Rectangle_1-241" data-name="Rectangle 1" width="6" height="5" rx="2.5" transform="translate(125 128)" fill="#fff"/>
    </g>
    <g transform="translate(1 180)">
      <rect id="Rectangle_1-242" data-name="Rectangle 1" width="6" height="5" rx="2.5" transform="translate(125 128)" fill="#fff"/>
    </g>
    <g transform="translate(19 180)">
      <rect id="Rectangle_1-243" data-name="Rectangle 1" width="6" height="5" rx="2.5" transform="translate(125 128)" fill="#fff"/>
    </g>
    <g transform="translate(37 180)">
      <rect id="Rectangle_1-244" data-name="Rectangle 1" width="6" height="5" rx="2.5" transform="translate(125 128)" fill="#fff"/>
    </g>
    <g transform="translate(55 180)">
      <rect id="Rectangle_1-245" data-name="Rectangle 1" width="6" height="5" rx="2.5" transform="translate(125 128)" fill="#fff"/>
    </g>
    <g transform="translate(73 180)">
      <rect id="Rectangle_1-246" data-name="Rectangle 1" width="6" height="5" rx="2.5" transform="translate(125 128)" fill="#fff"/>
    </g>
    <g transform="translate(91 180)">
      <rect id="Rectangle_1-247" data-name="Rectangle 1" width="6" height="5" rx="2.5" transform="translate(125 128)" fill="#fff"/>
    </g>
    <g transform="translate(-125 197)">
      <rect id="Rectangle_1-248" data-name="Rectangle 1" width="6" height="5" rx="2.5" transform="translate(125 128)" fill="#fff"/>
    </g>
    <g transform="translate(-107 197)">
      <rect id="Rectangle_1-249" data-name="Rectangle 1" width="6" height="5" rx="2.5" transform="translate(125 128)" fill="#fff"/>
    </g>
    <g transform="translate(-89 197)">
      <rect id="Rectangle_1-250" data-name="Rectangle 1" width="6" height="5" rx="2.5" transform="translate(125 128)" fill="#fff"/>
    </g>
    <g transform="translate(-71 197)">
      <rect id="Rectangle_1-251" data-name="Rectangle 1" width="6" height="5" rx="2.5" transform="translate(125 128)" fill="#fff"/>
    </g>
    <g transform="translate(-53 197)">
      <rect id="Rectangle_1-252" data-name="Rectangle 1" width="6" height="5" rx="2.5" transform="translate(125 128)" fill="#fff"/>
    </g>
    <g transform="translate(-35 197)">
      <rect id="Rectangle_1-253" data-name="Rectangle 1" width="6" height="5" rx="2.5" transform="translate(125 128)" fill="#fff"/>
    </g>
    <g transform="translate(-17 197)">
      <rect id="Rectangle_1-254" data-name="Rectangle 1" width="6" height="5" rx="2.5" transform="translate(125 128)" fill="#fff"/>
    </g>
    <g transform="translate(1 197)">
      <rect id="Rectangle_1-255" data-name="Rectangle 1" width="6" height="5" rx="2.5" transform="translate(125 128)" fill="#fff"/>
    </g>
    <g transform="translate(19 197)">
      <rect id="Rectangle_1-256" data-name="Rectangle 1" width="6" height="5" rx="2.5" transform="translate(125 128)" fill="#fff"/>
    </g>
    <g transform="translate(37 197)">
      <rect id="Rectangle_1-257" data-name="Rectangle 1" width="6" height="5" rx="2.5" transform="translate(125 128)" fill="#fff"/>
    </g>
    <g transform="translate(55 197)">
      <rect id="Rectangle_1-258" data-name="Rectangle 1" width="6" height="5" rx="2.5" transform="translate(125 128)" fill="#fff"/>
    </g>
    <g transform="translate(73 197)">
      <rect id="Rectangle_1-259" data-name="Rectangle 1" width="6" height="5" rx="2.5" transform="translate(125 128)" fill="#fff"/>
    </g>
    <g transform="translate(91 197)">
      <rect id="Rectangle_1-260" data-name="Rectangle 1" width="6" height="5" rx="2.5" transform="translate(125 128)" fill="#fff"/>
    </g>
    <g transform="translate(-125 214)">
      <rect id="Rectangle_1-261" data-name="Rectangle 1" width="6" height="5" rx="2.5" transform="translate(125 128)" fill="#fff"/>
    </g>
    <g transform="translate(-107 214)">
      <rect id="Rectangle_1-262" data-name="Rectangle 1" width="6" height="5" rx="2.5" transform="translate(125 128)" fill="#fff"/>
    </g>
    <g transform="translate(-89 214)">
      <rect id="Rectangle_1-263" data-name="Rectangle 1" width="6" height="5" rx="2.5" transform="translate(125 128)" fill="#fff"/>
    </g>
    <g transform="translate(-71 214)">
      <rect id="Rectangle_1-264" data-name="Rectangle 1" width="6" height="5" rx="2.5" transform="translate(125 128)" fill="#fff"/>
    </g>
    <g transform="translate(-53 214)">
      <rect id="Rectangle_1-265" data-name="Rectangle 1" width="6" height="5" rx="2.5" transform="translate(125 128)" fill="#fff"/>
    </g>
    <g transform="translate(-35 214)">
      <rect id="Rectangle_1-266" data-name="Rectangle 1" width="6" height="5" rx="2.5" transform="translate(125 128)" fill="#fff"/>
    </g>
    <g transform="translate(-17 214)">
      <rect id="Rectangle_1-267" data-name="Rectangle 1" width="6" height="5" rx="2.5" transform="translate(125 128)" fill="#fff"/>
    </g>
    <g transform="translate(1 214)">
      <rect id="Rectangle_1-268" data-name="Rectangle 1" width="6" height="5" rx="2.5" transform="translate(125 128)" fill="#fff"/>
    </g>
    <g transform="translate(19 214)">
      <rect id="Rectangle_1-269" data-name="Rectangle 1" width="6" height="5" rx="2.5" transform="translate(125 128)" fill="#fff"/>
    </g>
    <g transform="translate(37 214)">
      <rect id="Rectangle_1-270" data-name="Rectangle 1" width="6" height="5" rx="2.5" transform="translate(125 128)" fill="#fff"/>
    </g>
    <g transform="translate(55 214)">
      <rect id="Rectangle_1-271" data-name="Rectangle 1" width="6" height="5" rx="2.5" transform="translate(125 128)" fill="#fff"/>
    </g>
    <g transform="translate(73 214)">
      <rect id="Rectangle_1-272" data-name="Rectangle 1" width="6" height="5" rx="2.5" transform="translate(125 128)" fill="#fff"/>
    </g>
    <g transform="translate(91 214)">
      <rect id="Rectangle_1-273" data-name="Rectangle 1" width="6" height="5" rx="2.5" transform="translate(125 128)" fill="#fff"/>
    </g>
  </g>
</svg>
