<svg xmlns="http://www.w3.org/2000/svg" xmlns:xlink="http://www.w3.org/1999/xlink" width="1841.423" height="2029.837" viewBox="0 0 1841.423 2029.837" preserveAspectRatio="none">
  <defs>
    <filter id="get-started-background" x="0" y="0" width="1841.423" height="2029.837" filterUnits="userSpaceOnUse">
      <feOffset dx="3" dy="3" input="SourceAlpha"/>
      <feGaussianBlur stdDeviation="3" result="blur"/>
      <feFlood flood-opacity="0.161"/>
      <feComposite operator="in" in2="blur"/>
      <feComposite in="SourceGraphic"/>
    </filter>
  </defs>
  <g transform="matrix(1, 0, 0, 1, 0, 0)" filter="url(#get-started-background)">
    <path id="get-started-background-2" data-name="get-started-background" d="M4703.274,303.448s50.1,97.7,182.263,151.354,351.529,15.388,346.4,63.262,76.94,68.391-10.259,68.391-304.341-6.839-413.768,13.678-109.426,78.65-76.94,162.429S4795.942,868.57,4823.3,868.57s59.842,22.227,32.486,35.905-128.234-13.678-410.348,0-364.184,27.357-369.313,109.426-135.073,198.335,0,194.915,220.562,54.713,341.957,0,261.6,117.975,552.26,44.454,478.74-78.65,482.159-17.1,107.716,58.133-22.228,85.489-218.852-44.454-439.414-17.1-331.7-18.807-364.184,47.874-251.338,229.111-18.808,217.142,384.7,46.164,200.044,68.391-365.894,8.549-389.831,119.685-42.744,266.726,141.912,290.663,311.181,85.489,492.417,0,273.565-59.842,237.66-170.978-51.293-155.59-148.751-179.527-200.044-47.874-201.754-70.1-90.618-59.842,131.653-58.133,528.323,88.909,560.809,0,99.167-116.265,20.518-188.076-102.587-73.521-100.877-128.234c.978-31.3-30.911-93.606-121.395-142.976-67.794-36.99-198.531-65.346-208.593-75.573-23.509-23.894,8.737-68.6-80.36-100.022-92.328-32.562-135.073,9.1-170.979-30.225s54.713-22.227,309.471-46.164,480.449,37.615,509.516,0,94.038-140.2,0-213.723-430.865-5.129-449.673-71.811-39.325-117.975,0-117.975,4.619-154.09-29.577-222.481S5249.892,88.87,5101.141,92.29,4839.416,56.963,4718.833,103.4,4703.274,303.448,4703.274,303.448Z" transform="translate(-4008.93 -74.38)" fill="#fce782"/>
  </g>
</svg>
