<svg id="Logo" xmlns="http://www.w3.org/2000/svg" width="141.351" height="60.374" viewBox="0 0 141.351 60.374">
  <path id="Path_17" data-name="Path 17" d="M103.806,105.644c-12.14-3.1-22.315-7.708-27.369-14.043L80,88.76c4.062,5.091,12.94,9.408,24.934,12.469,11.856,3.025,26.28,4.707,40.863,4.883s29.227-1.152,41.525-4.088c12.4-2.961,22.012-7.462,27-13.32l3.47,2.953c-5.953,7-16.761,11.778-29.409,14.8-12.747,3.044-27.778,4.393-42.639,4.213S116.085,108.778,103.806,105.644Z" transform="translate(-76.437 -50.311)" fill="#707070" fill-rule="evenodd"/>
  <path id="Path_18" data-name="Path 18" d="M188.574,101.039V78.922a20.5,20.5,0,0,0-20.5-20.5H125.922a20.5,20.5,0,0,0-20.5,20.5v22.117H102V78.922A23.922,23.922,0,0,1,125.922,55H168.07a23.922,23.922,0,0,1,23.922,23.922v22.117Z" transform="translate(-72.88 -55)" fill="#707070" fill-rule="evenodd"/>
  <path id="Path_19" data-name="Path 19" d="M129.391,71.987c0,2.2-2.551,3.987-5.7,3.987s-5.7-1.785-5.7-3.987S120.551,68,123.7,68,129.391,69.785,129.391,71.987Z" transform="translate(-70.654 -53.191)" fill="#707070"/>
  <path id="Path_20" data-name="Path 20" d="M167.391,71.987c0,2.2-2.551,3.987-5.7,3.987s-5.7-1.785-5.7-3.987S158.551,68,161.7,68,167.391,69.785,167.391,71.987Z" transform="translate(-65.366 -53.191)" fill="#707070"/>
</svg>
