<svg xmlns="http://www.w3.org/2000/svg" width="1927.599" height="4329.889" viewBox="0 0 1927.599 4329.889" preserveAspectRatio="none">
  <path id="product-background" d="M1655.163,1.285s-188.321,74.5-193.058,240.294S1195.263,503.684,926.842,472.105s-345.789-45.789-284.211,74.211,608.657,290.5,716.842,536.842-879.158,384.473-879.158,384.473l-482.9,132.035-.006,246.986s72.7,137,73.728,278.672c1.588,218.938,504.106,631.194,493.2,963.134C556.431,3328.96-.46,3403.6-.46,3403.6v926.162H1918.4l5.016-935.04s-393.817,63.222-356.061-33.2c58.789-150.136,115.641-289.575,172.478-396.3,208.19-390.914-177.11-163.29-380.358-202.306s-272.325,237.094-432.632,46.241-203.6-427.573-208.6-809.651,747.069,60.511,1047.113-439.367c85.512-142.465,159.653-526.55,159.653-526.55V-.128Z" transform="translate(2.587 0.128)" fill="#fce782"/>
</svg>
